PathFileType	4	(X/Y/Z)	Patient4_TMGait_0pt4_01_right_21.trc.trc
DataRate	CameraRate	NumFrames	NumMarkers	Units	OrigDataRate	OrigDataStartFrame	OrigNumFrames
79.096045197740	79.096045197740	4	33	mm	79.096045197740	106	       141
Frame#	Time	Sacral			L.Shoulder			Chest			R.Shoulder			Neck			R.ASIS			L.ASIS			R.Thigh.Superior			R.Thigh.Lateral			R.Thigh.Inferior			R.Patella			L.Thigh.Superior			L.Thigh.Lateral			L.Thigh.Inferior			L.Patella			L.Shank.Superior			L.Shank.Lateral			L.Shank.Inferior			R.Shank.Superior			R.Shank.Lateral			R.Shank.Inferior			R.Heel			R.Midfoot.Superior			R.Midfoot.Lateral			R.Toe			L.Heel			L.Midfoot.Lateral			L.Midfoot.Superior			L.Toe			L.Elbow			L.Wrist			R.Elbow			R.Wrist			
		X1	Y1	Z1	X2	Y2	Z2	X3	Y3	Z3	X4	Y4	Z4	X5	Y5	Z5	X6	Y6	Z6	X7	Y7	Z7	X8	Y8	Z8	X9	Y9	Z9	X10	Y10	Z10	X11	Y11	Z11	X12	Y12	Z12	X13	Y13	Z13	X14	Y14	Z14	X15	Y15	Z15	X16	Y16	Z16	X17	Y17	Z17	X18	Y18	Z18	X19	Y19	Z19	X20	Y20	Z20	X21	Y21	Z21	X22	Y22	Z22	X23	Y23	Z23	X24	Y24	Z24	X25	Y25	Z25	X26	Y26	Z26	X27	Y27	Z27	X28	Y28	Z28	X29	Y29	Z29	X30	Y30	Z30	X31	Y31	Z31	X32	Y32	Z32	X33	Y33	Z33	

106	28.387500000000	750.400946950050	1006.554966370782	401.735410298836	954.696292810145	1430.340688819167	209.403763065368	1040.260443973364	1366.628111679800	378.733948244893	944.503577409149	1453.583680058181	542.513123141748	943.978663615014	1499.138127785237	360.081614237200	972.540210637825	959.745669868591	536.079173011584	977.803681797409	966.834882929190	261.904770575332	1072.250317149940	800.097718459029	509.255909136784	1044.526969990241	678.245287285628	588.983135429498	1136.868276356205	645.601777054520	510.925939828488	1170.940717386152	545.368792976657	537.514018951180	1023.813223984196	751.060014026680	299.975693698289	937.735272645510	635.791108922253	235.195666325824	1013.515533486394	558.167749083180	307.511710350081	1010.876615797415	489.557277387003	318.082353476756	983.808833007442	417.469347024997	307.958014041602	895.872421798606	303.634324958793	254.958283651814	941.083280401970	192.629970909157	329.490339267456	1121.239562474836	456.164826637127	548.413467864872	1024.396888860780	379.243520716750	614.376662179590	1048.590175373511	270.485212589393	569.164614724159	882.548634859227	149.122687300926	547.855535684842	1060.752859600015	141.566082521665	589.465896409984	956.067581292558	111.434766038126	622.779094424466	1152.846363052334	50.691088872571	617.267758654688	809.304464235915	38.234885537846	369.005520081372	883.407276083761	35.222525573152	288.351269547292	967.129441406011	96.546150737419	316.210129625657	1095.476855837547	43.492676201886	286.998041452271	940.105416073697	1083.421317850336	84.633841003317	1117.906627839441	891.571504812287	98.422826267333	852.960862608041	1128.111671478043	683.358340199448	862.421081302915	875.294575855988	742.233244537221	
107	28.400142857143	751.147368349415	1007.208393001592	400.837165683042	958.165414080106	1430.627373934910	209.770179285785	1042.235843619023	1366.510853039747	379.633963341320	945.611545399560	1453.671671431079	542.733610557975	946.463214159561	1499.275643038096	360.378019682062	972.814820192371	960.049782691515	536.174490479052	978.890231962622	966.890420379179	261.854942629317	1071.577815057960	799.429085105176	509.572226891407	1042.269447386421	677.467527403470	589.265673135727	1134.310564350897	644.193987367374	511.338723924310	1168.854237735944	546.628941795963	537.132673697184	1022.852506841149	750.385215195393	300.217795738642	935.680881758497	635.794186606423	234.863985935960	1010.409317819276	557.466821623527	307.304718299069	1007.055467429723	488.971091997957	317.826623068159	979.891789633592	417.162580227554	307.719536224977	891.615829411584	303.586460054420	254.761864350500	936.281629319060	192.440862631710	329.396105072332	1124.329053960581	456.746140042582	548.516775083328	1034.233654581095	373.859800720666	616.339875132852	1064.980887343650	266.953220386497	570.416797790645	907.782963290638	134.207207804154	551.522693665625	1086.429006606617	139.132902874549	590.458878303462	984.809080444758	101.927531559004	625.410253896207	1184.881068970097	55.265058899831	617.018581698292	804.260061174803	38.269739367108	369.003613926435	878.339265025847	35.228152615379	288.358742011083	962.122054391229	96.509458021977	316.178588265389	1090.449853183186	43.243256532780	286.978452024386	944.161449176717	1084.309865109612	83.702585313389	1124.824490185959	895.456950018997	99.631056738397	846.805971065310	1131.448112467894	684.885991117480	851.959281437199	878.828820544088	744.621132733738	
108	28.412785714286	752.007505471487	1007.734810591918	400.105238236714	961.479973884057	1430.778233009879	210.252444057315	1044.191426417500	1366.278576104832	380.569431745141	946.795468621929	1453.652124987537	543.037233257147	948.891702888981	1499.291092318569	360.781270047492	973.196853572041	960.121491109714	536.423038830440	980.071687921977	966.851585496548	261.925993265145	1070.490141427514	797.908681850195	510.187848998046	1039.207860569220	676.076962087672	589.779092291264	1130.815016087754	641.907600554049	511.880794403434	1165.726797745622	547.177828222083	536.756102730415	1022.007621005036	749.685888010015	300.538749556401	933.768575598609	635.747505859166	234.609852545680	1007.477593985431	556.737442378061	307.119096893669	1003.421194542627	488.344541304140	317.590754481490	976.140568529419	416.806307448608	307.515009224523	887.475974153616	303.533030297642	254.585028230744	931.559465317419	192.228444073029	329.304035549525	1126.487642474844	457.035086962032	548.681722086023	1043.580781203836	368.521111767972	618.294576376642	1080.904706760691	263.921447478935	571.551025928462	933.528398216338	120.142816699717	554.843564434107	1111.725880048661	137.666395508489	591.158503097788	1013.679725206890	93.458428064781	627.638876030357	1216.130589584802	61.315164625146	616.387732706273	799.222297003922	38.311087509452	368.992206766055	873.272201792603	35.231743656367	288.364128498851	957.110279667383	96.465273239816	316.153015665853	1085.422634715667	42.987595502350	286.961014951797	948.052197991503	1085.011195289862	83.025294468386	1131.195112232106	898.884249537126	100.985481111413	841.004372299963	1134.662613072319	686.255041725216	842.449780546702	882.173300576565	746.528306983058	
109	28.425428571429	752.997457375712	1008.113708197582	399.543553032614	964.593616249610	1430.806598959182	210.856100965290	1046.101851060727	1365.951307047328	381.534120258570	948.033715292794	1453.533952105747	543.440323674459	951.227521400600	1499.194055177717	361.300269208607	973.696934034887	959.965004401503	536.827444602150	981.369564768594	966.727867967276	262.136557539067	1069.032817656237	795.604641056578	511.075609477987	1035.557904037021	674.186060969623	590.526300091203	1126.555978189800	638.894790584274	512.482211631917	1161.770112996473	547.105752684543	536.373576296405	1021.295545026641	748.959963531992	300.944906672512	932.025738722689	635.656500696265	234.436262121223	1004.737527039663	555.978236703248	306.969487077762	999.992710264338	487.676791555778	317.384675596863	972.564796703758	416.400481551848	307.349282655093	883.459327299666	303.477677031900	254.428497515405	926.921129474071	191.994833223098	329.212550396588	1127.805414318846	457.083970666034	548.907375370187	1052.287091919954	363.385567822693	620.128472941959	1096.072259428631	261.492029372171	572.504524167487	959.205879705704	107.291201482646	557.622246863877	1136.120794059052	137.237500703935	591.538659817507	1042.022495577971	86.238932238014	629.344268381159	1245.942463171647	68.700639557573	615.424872140779	794.186779854163	38.362489445690	368.970640849565	868.205639234937	35.234054340138	288.366050319191	952.093044327953	96.412706400784	316.133282856400	1080.394364454915	42.726722253048	286.945187748662	951.777193738072	1085.528700044075	82.619842521521	1137.018673771962	901.820444874792	102.474452196832	835.632537323371	1137.664098149321	687.389639663134	833.858834890989	885.242266931367	747.996517387589	
